<?xml version="1.0" encoding="UTF-8"?>
<svg width="17px" height="17px" viewBox="0 0 17 17" version="1.1" xmlns="http://www.w3.org/2000/svg" xmlns:xlink="http://www.w3.org/1999/xlink">
    <defs>
        <path d="M0.292893219,0.292893219 C0.683417511,-0.0976310729 1.31658249,-0.0976310729 1.70710678,0.292893219 L1.70710678,0.292893219 L8,6.585 L14.2928932,0.292893219 C14.6533772,-0.0675907428 15.2206082,-0.0953202783 15.6128994,0.209704612 L15.7071068,0.292893219 C16.0976311,0.683417511 16.0976311,1.31658249 15.7071068,1.70710678 L15.7071068,1.70710678 L9.415,8 L15.7071068,14.2928932 C16.0675907,14.6533772 16.0953203,15.2206082 15.7902954,15.6128994 L15.7071068,15.7071068 C15.3165825,16.0976311 14.6834175,16.0976311 14.2928932,15.7071068 L14.2928932,15.7071068 L8,9.415 L1.70710678,15.7071068 C1.34662282,16.0675907 0.779391764,16.0953203 0.387100557,15.7902954 L0.292893219,15.7071068 C-0.0976310729,15.3165825 -0.0976310729,14.6834175 0.292893219,14.2928932 L0.292893219,14.2928932 L6.585,8 L0.292893219,1.70710678 C-0.0675907428,1.34662282 -0.0953202783,0.779391764 0.209704612,0.387100557 Z" id="times-path-1"></path>
    </defs>
    <g id="times-Symbols" stroke="none" stroke-width="1" fill-rule="evenodd">
        <g id="times-Modal/Signup" transform="translate(-493.000000, -40.000000)">
            <g id="times-Color/Black" transform="translate(493.315100, 40.876121)">
                <mask id="times-mask-2" fill="white">
                    <use xlink:href="#times-path-1"></use>
                </mask>
                <use id="times-Mask" fill-rule="nonzero" xlink:href="#times-path-1"></use>
                <g mask="url(#times-mask-2)" id="times-Rectangle">
                    <g transform="translate(-3.000000, -3.000000)">
                        <rect x="0" y="0" width="22" height="22"></rect>
                    </g>
                </g>
            </g>
        </g>
    </g>
</svg>